<?xml version="1.0" encoding="utf-8"?>
<!-- Generator: Adobe Illustrator 16.0.0, SVG Export Plug-In . SVG Version: 6.00 Build 0)  -->
<!DOCTYPE svg PUBLIC "-//W3C//DTD SVG 1.1//EN" "http://www.w3.org/Graphics/SVG/1.1/DTD/svg11.dtd">
<svg version="1.1" id="圖層_1" xmlns="http://www.w3.org/2000/svg" xmlns:xlink="http://www.w3.org/1999/xlink" x="0px" y="0px"
	 width="615.185px" height="223.686px" viewBox="0 0 615.185 223.686" enable-background="new 0 0 615.185 223.686"
	 xml:space="preserve">
<path fill="#F7FBFC" d="M-28.361-8.657v246h674v-246H-28.361z M194.274,141.941l9.64-43.324l38.851,39.354L194.274,141.941z
	 M237.976,96.325c-3.959,0-7.168-3.209-7.168-7.168s3.209-7.168,7.168-7.168s7.168,3.209,7.168,7.168S241.935,96.325,237.976,96.325
	z M256.762,79.158l-19.183-37.48l56.703,23.979L256.762,79.158z M329.312,85.267l-6.178,6.062l-0.146-66.33l6.48-5.062
	L329.312,85.267z M373.312,28.973l24.412,45.981l-48.929,0.115L373.312,28.973z M414.205,168.812l-32.928-21.832l43.342-26.624
	L414.205,168.812z"/>
<g>
	<path fill="none" stroke="#89C6E0" stroke-miterlimit="10" d="M135.537,222.492c26.462,1.302,45.119-26.232,52.663-48.216
		c2.229-6.491,3.87-13.221,4.68-20.041c0.623-5.249,0.195-11.695,4.491-15.558c6.065-5.449,20.556-3.947,28.038-4.102
		c1.914-0.036,11.891,0.073,11.525-3.077c-0.833-7.16-17.548-3.118-21.651-2.477c-3.051,0.477-23.011,2.778-19.351-3.983
		c3.142-5.793,16.288-2.515,21.314-2.685c13.38-0.452,9.778-8.606,3.274-17.17c-2.091-2.753-5.861-10.706-1.367-13.066
		c5.746-3.014,19.558,8.6,23.008-0.516c3.281-8.67-10.693-9.835-8.918-0.701c1.161,5.969,8.965,2.051,8.639-3.255
		c-0.436-7.041-3.8-14.121-7.134-20.217c-3.518-6.43-8.645-12.951-7.566-20.737c0.897-6.489,6.498-7.27,8.909-1.138
		c2.936,7.469,4.462,15.554,8.01,22.761c3.317,6.742,7.328,14.226,15.354,15.902c5.918,1.237,12.191-0.137,17.755-2.227
		c4.431-1.665,11.624-4.35,14.542-8.308c2.299-3.117-0.776-4.559-3.529-4.178c-3.073,0.426-6.12,2.555-8.766,4.054
		c-5.393,3.058-11.706,6.224-17.941,6.82c-9.545,0.915-9.947-7.841-4.854-14.514c5.166-6.767,14.933-10.363,22.798-12.732
		c11.144-3.355,23.631-5.563,31.373-15.138c1.831-2.265,5.409-10.35,9.294-8.774c2.354,0.954,1.699,6.602,1.635,8.606
		c-0.162,4.993-0.826,9.985-1.072,14.979c-0.186,3.754-0.308,7.52-0.196,11.276c0.052,1.729-0.373,8.106,1.355,9.048
		c3.496,1.901,2.598-12.713,2.699-13.95c0.233-2.87-0.384-14.386,2.973-15.218c3.695-0.917,1.877,10.31,1.586,12.462
		c-0.505,3.733-0.947,7.485-1.081,11.254c-0.106,2.976-1.304,7.402,0.825,9.871c3.483,4.04,8.076-1.59,9.662-4.544
		c7.1-13.22,14.104-26.107,22.02-38.89c1.06-1.709,5.724-12.093,8.76-11.429c3.916,0.856-1.743,7.732-2.634,9.269
		c-2.598,4.48-5.443,8.808-8.196,13.193c-1.459,2.322-4.896,6.845-4.079,9.775c0.858,3.079,5.477,2.823,7.871,2.485
		c6.135-0.873,12.796-4.436,19.076-3.017c2.779,0.628,7.971,3.01,6.078,6.674c-3.053,5.913-14.752,2.262-19.61,1.933
		c-2.686-0.183-14.62-2.604-15.745,0.926c-1.005,3.151,11.895,2.897,13.562,2.937c6.957,0.157,16.699-1.072,21.721,4.787
		c2.935,3.428,4.214,8.113,2.376,12.376c-1.222,2.829-13.951,15.966-14.884,7.627c-0.526-4.716,6.299-7.008,8.236-2.5
		c2.233,5.192-6.29,10.107-8.299,5.269c-2.527-6.099,9.108-6.093,6.773-1.358c-0.827,1.676-4.354,1.556-4.437-0.572
		c-0.08-2.076,2.83-2.178,4.082-1.112c6.854,5.834-0.269,12.39-2.697,18.401c-3.288,8.136,3.809,14.316,11.768,11.37
		c3.181-1.177,15.591-10.079,18.246-4.492c3.074,6.469-20.146,16.172-23.766,18.029c-2.408,1.237-11.284,5.387-10.408,8.259
		c1.14,3.729,10.412-3.059,12.086-4.037c6.658-3.887,13.039-8.219,19.551-12.361c1.682-1.071,4.736-3.317,6.857-3.387
		c2.91-0.098,1.893,3.228,1.431,5.18c-1.867,7.885-3.388,15.844-5.001,23.78c-0.803,3.956-1.635,7.903-2.534,11.839
		c-1.505,6.565,1.206,8.61,6.81,5.151c7.393-4.565,14.05-10.656,21.071-15.785c2.36-1.727,15.129-13.662,16.977-10.239
		c2.002,3.71-9.967,10.427-11.901,11.744c-6.898,4.703-13.626,9.653-20.427,14.496c-3.805,2.709-10.078,5.687-9.461,11.096
		c0.408,3.584,2.908,5.997,6.043,7.422c11.585,5.261,24.896,1.526,36.314-2.276c9.199-3.064,24.199-11.125,33.783-6.395"/>
</g>
</svg>
