<?xml version="1.0" encoding="utf-8"?>
<!-- Generator: Adobe Illustrator 16.0.0, SVG Export Plug-In . SVG Version: 6.00 Build 0)  -->
<!DOCTYPE svg PUBLIC "-//W3C//DTD SVG 1.1//EN" "http://www.w3.org/Graphics/SVG/1.1/DTD/svg11.dtd">
<svg version="1.1" id="圖層_1" xmlns="http://www.w3.org/2000/svg" xmlns:xlink="http://www.w3.org/1999/xlink" x="0px" y="0px"
	 width="347.369px" height="223.685px" viewBox="0 0 347.369 223.685" enable-background="new 0 0 347.369 223.685"
	 xml:space="preserve">
<g>
	<polygon fill="#F4D7E0" points="104.309,137.971 65.459,98.617 55.819,141.941 	"/>
	<polyline fill="#F4D7E0" points="155.828,65.656 118.307,79.158 99.125,41.678 	"/>
	<circle fill="#F4D7E0" cx="99.521" cy="89.157" r="7.168"/>
	<polyline fill="#F4D7E0" points="234.857,28.973 210.341,75.07 259.269,74.955 	"/>
	<g>
		<polygon fill="#F4D7E0" points="191.013,19.936 190.857,85.267 184.679,91.329 184.533,24.999 		"/>
	</g>
	<polyline fill="#F4D7E0" points="242.822,146.98 275.75,168.812 286.164,120.356 	"/>
</g>
<g>
	<path fill="none" stroke="#89C6E0" stroke-miterlimit="10" d="M-2.918,222.492c26.462,1.302,45.119-26.232,52.663-48.216
		c2.228-6.491,3.87-13.221,4.68-20.041c0.623-5.249,0.195-11.695,4.491-15.557c6.065-5.45,20.555-3.948,28.038-4.102
		c1.914-0.036,11.89,0.073,11.525-3.077c-0.833-7.16-17.548-3.118-21.651-2.477c-3.051,0.477-23.011,2.779-19.351-3.983
		c3.142-5.793,16.288-2.515,21.315-2.685c13.38-0.452,9.778-8.606,3.274-17.17c-2.091-2.753-5.861-10.706-1.367-13.066
		c5.746-3.014,19.558,8.6,23.008-0.516c3.281-8.67-10.694-9.835-8.918-0.701c1.161,5.969,8.965,2.051,8.638-3.255
		c-0.435-7.041-3.799-14.121-7.133-20.217C92.776,61,87.649,54.478,88.727,46.692c0.898-6.489,6.498-7.269,8.909-1.138
		c2.936,7.469,4.462,15.554,8.01,22.761c3.318,6.742,7.328,14.226,15.355,15.903c5.918,1.237,12.191-0.137,17.755-2.227
		c4.43-1.665,11.624-4.35,14.542-8.308c2.298-3.117-0.777-4.558-3.53-4.177c-3.073,0.425-6.12,2.554-8.765,4.053
		c-5.393,3.058-11.706,6.224-17.942,6.821c-9.545,0.915-9.947-7.841-4.853-14.514c5.166-6.767,14.932-10.363,22.798-12.732
		c11.143-3.356,23.63-5.564,31.373-15.138c1.831-2.265,5.409-10.35,9.294-8.775c2.354,0.955,1.699,6.602,1.634,8.607
		c-0.162,4.993-0.826,9.985-1.072,14.979c-0.185,3.754-0.308,7.52-0.196,11.277c0.052,1.729-0.373,8.106,1.355,9.048
		c3.496,1.901,2.598-12.713,2.699-13.951c0.234-2.87-0.383-14.385,2.973-15.217c3.695-0.917,1.877,10.309,1.586,12.462
		c-0.505,3.733-0.947,7.485-1.081,11.253c-0.106,2.976-1.304,7.403,0.825,9.872c3.484,4.04,8.076-1.59,9.662-4.544
		c7.1-13.22,14.104-26.108,22.02-38.89c1.059-1.709,5.723-12.093,8.76-11.429c3.916,0.857-1.744,7.733-2.634,9.269
		c-2.598,4.48-5.444,8.807-8.196,13.193c-1.459,2.322-4.896,6.845-4.08,9.776c0.859,3.079,5.477,2.823,7.872,2.485
		c6.134-0.873,12.795-4.436,19.076-3.017c2.779,0.628,7.97,3.01,6.078,6.674c-3.053,5.913-14.752,2.262-19.611,1.933
		c-2.685-0.183-14.62-2.605-15.745,0.926c-1.005,3.151,11.895,2.897,13.562,2.936c6.957,0.157,16.699-1.072,21.721,4.787
		c2.934,3.428,4.213,8.113,2.376,12.376c-1.222,2.829-13.952,15.966-14.884,7.627c-0.527-4.716,6.299-7.008,8.236-2.5
		c2.234,5.192-6.29,10.108-8.299,5.269c-2.527-6.099,9.109-6.093,6.774-1.359c-0.827,1.676-4.354,1.556-4.437-0.572
		c-0.08-2.076,2.83-2.178,4.082-1.112c6.854,5.834-0.268,12.389-2.697,18.401c-3.288,8.136,3.809,14.316,11.768,11.37
		c3.18-1.177,15.59-10.079,18.246-4.492c3.074,6.469-20.147,16.172-23.766,18.029c-2.408,1.238-11.284,5.387-10.408,8.259
		c1.139,3.729,10.412-3.059,12.086-4.037c6.658-3.887,13.039-8.219,19.551-12.361c1.681-1.072,4.736-3.318,6.857-3.387
		c2.91-0.098,1.893,3.227,1.431,5.18c-1.868,7.884-3.388,15.843-5.001,23.78c-0.803,3.956-1.635,7.903-2.535,11.839
		c-1.504,6.565,1.207,8.61,6.81,5.151c7.393-4.565,14.05-10.656,21.071-15.785c2.361-1.727,15.129-13.662,16.977-10.239
		c2.002,3.71-9.967,10.426-11.901,11.744c-6.899,4.703-13.626,9.653-20.427,14.496c-3.805,2.709-10.078,5.686-9.461,11.096
		c0.408,3.584,2.908,5.997,6.043,7.422c11.585,5.26,24.896,1.526,36.314-2.277c9.199-3.064,24.199-11.125,33.783-6.394"/>
</g>
</svg>
